<svg width="15" height="15" viewBox="0 0 15 15" fill="none" xmlns="http://www.w3.org/2000/svg">
<g clip-path="url(#clip0_342_947)">
<path d="M11.4666 5.4665L12.2166 3.8165L13.8666 3.0665L12.2166 2.3165L11.4666 0.666504L10.7166 2.3165L9.06663 3.0665L10.7166 3.8165L11.4666 5.4665Z" fill="#222222"/>
<path d="M11.4666 9.0665L10.7166 10.7165L9.06663 11.4665L10.7166 12.2165L11.4666 13.8665L12.2166 12.2165L13.8666 11.4665L12.2166 10.7165L11.4666 9.0665Z" fill="#222222"/>
<path d="M6.96663 5.7665L5.46663 2.4665L3.96663 5.7665L0.666626 7.2665L3.96663 8.7665L5.46663 12.0665L6.96663 8.7665L10.2666 7.2665L6.96663 5.7665ZM6.06063 7.8605L5.46663 9.1685L4.87263 7.8605L3.56463 7.2665L4.87263 6.6725L5.46663 5.3645L6.06063 6.6725L7.36863 7.2665L6.06063 7.8605Z" fill="#222222"/>
</g>
<defs>
<clipPath id="clip0_342_947">
<rect width="14.4" height="14.4" fill="white" transform="translate(0.0666504 0.0668945)"/>
</clipPath>
</defs>
</svg>
