<svg width="115" height="17" viewBox="0 0 115 17" fill="none" xmlns="http://www.w3.org/2000/svg">
<g clip-path="url(#clip0_285_4872)">
<path d="M0.96053 1.90763C0.885332 1.90669 0.810835 1.92187 0.742269 1.95212C0.673703 1.98236 0.612727 2.02695 0.563625 2.08273C0.514522 2.13851 0.478483 2.20414 0.458038 2.27502C0.437592 2.34589 0.433236 2.42029 0.445274 2.49299L2.63253 15.4969C2.65978 15.656 2.74341 15.8006 2.86874 15.9054C2.99406 16.0101 3.15307 16.0683 3.31782 16.0696H13.811C13.9345 16.0712 14.0545 16.0292 14.1491 15.9514C14.2436 15.8737 14.3065 15.7651 14.3263 15.6457L16.5186 2.49804C16.5307 2.42533 16.5263 2.35094 16.5059 2.28006C16.4854 2.20919 16.4494 2.14356 16.4003 2.08777C16.3512 2.03199 16.2902 1.98741 16.2217 1.95716C16.1531 1.92692 16.0786 1.91174 16.0034 1.91269L0.96053 1.90763ZM10.1707 11.306H6.82155L5.9147 6.66867H10.9822L10.1707 11.306Z" fill="#2684FF"/>
<path d="M15.8178 6.66858H10.9822L10.1707 11.306H6.82152L2.86694 15.9056C2.99229 16.0117 3.15209 16.0707 3.31779 16.072H13.8135C13.9371 16.0736 14.057 16.0316 14.1516 15.9539C14.2461 15.8761 14.309 15.7676 14.3288 15.6482L15.8178 6.66858Z" fill="url(#paint0_linear_285_4872)"/>
<path d="M30.5542 1.48389C33.5917 1.48389 35.0653 2.94979 35.0653 5.30382C35.0653 7.06996 34.2486 8.14479 32.5715 8.54592C34.7716 8.90172 35.8588 10.0775 35.8588 12.1438C35.8588 14.4752 34.2486 16.0748 30.9175 16.0748H24.7731V1.48389H30.5542ZM26.8135 3.39385V7.74359H30.2812C32.2082 7.74359 33.0017 6.87821 33.0017 5.47286C33.0017 4.06751 32.1412 3.38628 30.2812 3.38628L26.8135 3.39385ZM26.8135 9.52236V14.0639H30.9845C32.9347 14.0639 33.8184 13.3751 33.8184 11.9092C33.8184 10.355 32.9785 9.5123 30.9406 9.5123L26.8135 9.52236Z" fill="#253858"/>
<path d="M39.1925 0.706792C39.3746 0.69404 39.5572 0.719751 39.7281 0.78219C39.8991 0.84463 40.0543 0.94233 40.1833 1.06868C40.3123 1.19502 40.4121 1.34705 40.4758 1.51446C40.5396 1.68187 40.5659 1.86075 40.5528 2.03897C40.5528 2.39229 40.4095 2.73113 40.1544 2.98096C39.8993 3.2308 39.5533 3.37115 39.1925 3.37115C38.8317 3.37115 38.4858 3.2308 38.2307 2.98096C37.9756 2.73113 37.8323 2.39229 37.8323 2.03897C37.8192 1.86075 37.8455 1.68187 37.9093 1.51446C37.973 1.34705 38.0727 1.19502 38.2018 1.06868C38.3308 0.94233 38.486 0.84463 38.657 0.78219C38.8279 0.719751 39.0105 0.69404 39.1925 0.706792ZM38.1956 4.96826H40.1458V16.0698H38.1956V4.96826Z" fill="#253858"/>
<path d="M47.5913 14.2077C48.0035 14.1956 48.4134 14.1432 48.815 14.0513V15.8931C48.3877 16.0126 47.9454 16.0721 47.5011 16.0697C45.0742 16.0697 43.8943 14.6719 43.8943 12.6056V6.74444H42.0574V4.97829H43.8943V2.6167H45.7879V4.97072H48.8021V6.73687H45.7879V12.5626C45.7879 13.5391 46.3778 14.2077 47.5913 14.2077Z" fill="#253858"/>
<path d="M56.8527 16.2917C55.1988 16.2917 53.9286 15.56 53.2459 14.1169V16.0697H51.2957V0.330811H53.2588V6.96648C53.9853 5.50057 55.3456 4.74618 57.0898 4.74618C60.104 4.74618 61.6239 7.2541 61.6239 10.519C61.6137 13.6501 60.0267 16.2917 56.8527 16.2917ZM56.5564 6.52242C54.8046 6.52242 53.2588 7.61238 53.2588 10.0749V10.963C53.2588 13.4281 54.686 14.5155 56.3504 14.5155C58.5505 14.5155 59.6841 13.095 59.6841 10.519C59.6634 7.85463 58.5762 6.52242 56.5564 6.52242Z" fill="#253858"/>
<path d="M63.6542 4.96814H65.6044V11.6845C65.6044 13.6828 66.421 14.5709 68.2785 14.5709C70.082 14.5709 71.3392 13.3952 71.3392 11.1522V4.96814H73.2897V16.0696H71.3392V14.2505C70.992 14.8808 70.474 15.405 69.8422 15.7656C69.2103 16.1261 68.4892 16.309 67.7582 16.2942C65.151 16.2942 63.6542 14.5281 63.6542 11.4752V4.96814Z" fill="#253858"/>
<path d="M84.2386 15.7822C83.5587 16.1379 82.515 16.2868 81.4721 16.2868C77.4377 16.2868 75.5463 13.8899 75.5463 10.4837C75.5463 7.13063 77.4268 4.73369 81.4721 4.73369C82.4037 4.70778 83.3294 4.89526 84.1742 5.28119V7.04734C83.3692 6.6785 82.4868 6.4988 81.5979 6.52254C78.6506 6.52254 77.45 8.34422 77.45 10.4963C77.45 12.6485 78.6846 14.4601 81.6551 14.4601C82.531 14.4828 83.4047 14.3476 84.2314 14.0615L84.2386 15.7822Z" fill="#253858"/>
<path d="M86.4619 16.0697V0.330811H88.4119V10.1708L93.2867 4.97578H95.8268L90.4963 10.4231L96.051 16.0697H93.3974L88.4097 10.8747V16.0697H86.4619Z" fill="#253858"/>
<path d="M102.512 16.2917C98.2715 16.2917 96.4141 13.8947 96.4141 10.4886C96.4141 7.13545 98.3178 4.73853 101.765 4.73853C105.255 4.73853 106.66 7.11527 106.66 10.4886V11.354H98.385C98.6577 13.2413 99.9046 14.4625 102.579 14.4625C103.755 14.4614 104.922 14.2581 106.026 13.8619V15.6281C105.096 16.1151 103.669 16.2917 102.512 16.2917ZM98.3641 9.73171H104.689C104.576 7.66784 103.622 6.48953 101.674 6.48953C99.6088 6.47944 98.568 7.78889 98.3641 9.72158V9.73171Z" fill="#253858"/>
<path d="M113.462 14.2077C113.874 14.1956 114.284 14.1432 114.685 14.0513V15.8931C114.258 16.0126 113.815 16.0721 113.371 16.0697C110.945 16.0697 109.764 14.6719 109.764 12.6056V6.74444H107.928V4.97829H109.764V2.6167H111.669V4.97072H114.682V6.73687H111.669V12.5626C111.671 13.5391 112.256 14.2077 113.462 14.2077Z" fill="#253858"/>
</g>
<defs>
<linearGradient id="paint0_linear_285_4872" x1="16.9359" y1="7.96543" x2="9.07134" y2="14.2355" gradientUnits="userSpaceOnUse">
<stop offset="0.18" stop-color="#0052CC"/>
<stop offset="1" stop-color="#2684FF"/>
</linearGradient>
<clipPath id="clip0_285_4872">
<rect width="115" height="17" fill="white"/>
</clipPath>
</defs>
</svg>
