<svg width="15" height="15" viewBox="0 0 15 15" fill="none" xmlns="http://www.w3.org/2000/svg">
<path d="M10.8667 6.6668C10.8667 7.0688 10.8667 7.4648 10.8667 7.8668C11.5867 7.8668 12.5227 7.8668 13.2667 7.8668C13.2667 7.4648 13.2667 7.0688 13.2667 6.6668C12.5227 6.6668 11.5867 6.6668 10.8667 6.6668Z" fill="#222222"/>
<path d="M9.66666 10.6328C10.2427 11.0588 10.9927 11.6228 11.5867 12.0668C11.8267 11.7488 12.0667 11.4248 12.3067 11.1068C11.7127 10.6628 10.9627 10.0988 10.3867 9.6668C10.1467 9.9908 9.90666 10.3148 9.66666 10.6328Z" fill="#222222"/>
<path d="M12.3067 3.4268C12.0667 3.1088 11.8267 2.7848 11.5867 2.4668C10.9927 2.9108 10.2427 3.4748 9.66666 3.9068C9.90666 4.2248 10.1467 4.5488 10.3867 4.8668C10.9627 4.4348 11.7127 3.8768 12.3067 3.4268Z" fill="#222222"/>
<path d="M2.46666 5.4668C1.80666 5.4668 1.26666 6.0068 1.26666 6.6668V7.8668C1.26666 8.5268 1.80666 9.0668 2.46666 9.0668H3.06666V11.4668H4.26666V9.0668H4.86666L7.86666 10.8668V3.6668L4.86666 5.4668H2.46666ZM5.48466 6.4928L6.66666 5.7848V8.7488L5.48466 8.0408L5.19666 7.8668H2.46666V6.6668H5.19666L5.48466 6.4928Z" fill="#222222"/>
<path d="M9.36666 7.2668C9.36666 6.4688 9.01866 5.7488 8.46666 5.2568V9.2708C9.01866 8.7848 9.36666 8.0648 9.36666 7.2668Z" fill="#222222"/>
</svg>
