<svg width="15" height="15" viewBox="0 0 15 15" fill="none" xmlns="http://www.w3.org/2000/svg">
<path d="M2.8686 4.20656C3.2886 3.78056 3.7086 3.39656 3.8946 3.47456C4.1946 3.59456 3.8946 4.09256 3.7146 4.38656C3.5646 4.63856 1.9986 6.72056 1.9986 8.17256C1.9986 8.94056 2.2866 9.57656 2.8026 9.96056C3.2526 10.2966 3.8466 10.3986 4.3866 10.2366C5.0286 10.0506 5.5566 9.39656 6.2226 8.57456C6.9486 7.68056 7.9206 6.51056 8.6706 6.51056C9.6486 6.51056 9.6606 7.11656 9.7266 7.58456C7.4586 7.96856 6.4986 9.78656 6.4986 10.8066C6.4986 11.8266 7.3626 12.6606 8.4246 12.6606C9.4026 12.6606 10.9986 11.8626 11.2386 9.00056H12.7146V7.50056H11.2326C11.1426 6.51056 10.5786 4.98056 8.8146 4.98056C7.4646 4.98056 6.3066 6.12656 5.8506 6.68456C5.5026 7.12256 4.6146 8.17256 4.4766 8.31656C4.3266 8.49656 4.0686 8.82056 3.8106 8.82056C3.5406 8.82056 3.3786 8.32256 3.5946 7.66856C3.8046 7.01456 4.4346 5.95256 4.7046 5.55656C5.1726 4.87256 5.4846 4.40456 5.4846 3.58856C5.4846 2.28656 4.5006 1.87256 3.9786 1.87256C3.1866 1.87256 2.4966 2.47256 2.3466 2.62256C2.1306 2.83856 1.9506 3.01856 1.8186 3.18056L2.8686 4.20656ZM8.4426 11.2026C8.2566 11.2026 7.9986 11.0466 7.9986 10.7706C7.9986 10.4106 8.4366 9.45056 9.7206 9.11456C9.5406 10.7286 8.8626 11.2026 8.4426 11.2026Z" fill="#222222"/>
</svg>
