<svg width="96" height="17" viewBox="0 0 96 17" fill="none" xmlns="http://www.w3.org/2000/svg">
<g clip-path="url(#clip0_285_4903)">
<path fill-rule="evenodd" clip-rule="evenodd" d="M67.1686 13.0514C66.8756 13.055 66.585 13.0013 66.3132 12.8934C66.0417 12.7855 65.7945 12.6256 65.586 12.4229C65.1675 12.0108 64.885 11.3849 64.885 10.54C64.885 9.68486 65.1675 9.06156 65.586 8.64944C65.7953 8.44871 66.043 8.29076 66.3145 8.18466C66.5863 8.07857 66.8764 8.02644 67.1686 8.03125C67.765 8.03125 68.3326 8.23731 68.7512 8.64944C69.1697 9.06156 69.4496 9.68486 69.4496 10.54C69.4496 11.3952 69.1697 12.0185 68.7512 12.4306C68.5419 12.6313 68.2942 12.7893 68.0227 12.8954C67.7509 13.0015 67.4608 13.0536 67.1686 13.0488V13.0514ZM67.1686 5.29837C64.1395 5.29837 61.8454 7.49289 61.8454 10.54C61.8454 13.5665 64.1395 15.7817 67.1686 15.7817C70.1977 15.7817 72.4918 13.5665 72.4918 10.54C72.4918 7.49289 70.1977 5.29837 67.1686 5.29837ZM41.9836 13.1235C41.6907 13.1271 41.4001 13.0734 41.1283 12.9655C40.8568 12.8576 40.6096 12.6977 40.4011 12.495C39.9826 12.0829 39.7027 11.4596 39.7027 10.6147C39.7027 9.75956 39.9852 9.13365 40.4011 8.72411C40.6106 8.52263 40.8586 8.36404 41.1306 8.25748C41.4027 8.15095 41.6936 8.09856 41.9863 8.10335C42.5827 8.10335 43.1503 8.31201 43.5688 8.72156C43.9874 9.13368 44.2672 9.75959 44.2672 10.6122C44.2672 11.4673 43.9847 12.0932 43.5688 12.5028C43.3593 12.7042 43.1113 12.8628 42.8393 12.9694C42.5672 13.0759 42.2764 13.1283 41.9836 13.1235ZM41.9836 5.3705C38.9572 5.3705 36.6631 7.56762 36.6631 10.6122C36.6631 13.6413 38.9572 15.8538 41.9836 15.8538C45.0127 15.8538 47.3068 13.6387 47.3068 10.6122C47.3068 7.56762 45.0127 5.37307 41.9863 5.37307L41.9836 5.3705ZM80.7682 15.7482H83.7894V9.83943C83.7894 9.35004 83.9464 8.92504 84.2184 8.62625C84.3696 8.46462 84.5543 8.33718 84.7604 8.25269C84.9663 8.16821 85.1884 8.12869 85.4112 8.13686C85.9553 8.13686 86.3267 8.31714 86.5648 8.59017C86.8081 8.86835 86.931 9.27277 86.931 9.76216V15.7482H89.9339V9.83943C89.9339 9.36292 90.0909 8.93789 90.3629 8.63138C90.5099 8.4699 90.691 8.34197 90.8934 8.25653C91.0959 8.17112 91.3146 8.13026 91.5348 8.13686C92.092 8.13686 92.4608 8.31714 92.6962 8.59017C92.9369 8.86835 93.0572 9.27277 93.0572 9.76216V15.7482H96V9.23156C96 7.89989 95.5553 6.92883 94.8517 6.29519C94.1532 5.66413 93.222 5.38337 92.2882 5.38337C91.6211 5.38337 91.0117 5.49668 90.465 5.76714C89.9967 5.99895 89.586 6.33898 89.2251 6.81292C88.6417 5.87792 87.5771 5.38337 86.3215 5.38337C85.4008 5.38337 84.3414 5.74398 83.6717 6.43943V5.62549H80.7682V15.7482ZM79.6303 5.63322V8.66486L79.3949 8.6185C79.115 8.56441 78.8717 8.5438 78.6468 8.5438C78.0059 8.5438 77.4356 8.69835 77.0276 9.07441C76.6221 9.44789 76.3422 10.0687 76.3422 11.0681V15.7482H73.3288V5.62549H76.2638V6.60426C76.9883 5.74395 78.1157 5.57395 78.8246 5.57395C79.0496 5.57395 79.2562 5.59714 79.4524 5.61517L79.6303 5.63322ZM25.3 10.8697H28.2454L28.2794 10.9032C28.3004 10.9238 28.3161 10.9547 28.3187 10.9882C28.3315 11.2605 28.399 11.5276 28.5175 11.7739C28.6362 12.0202 28.8034 12.2408 29.0093 12.4229C29.3969 12.7345 29.885 12.8989 30.3852 12.8865C30.6622 12.8957 30.9379 12.8453 31.1929 12.739C31.4482 12.6327 31.6769 12.473 31.8631 12.2709C32.2251 11.8386 32.414 11.2907 32.3941 10.7306V2.25124H35.5802V10.8182C35.5802 13.5614 33.4483 15.8538 30.4061 15.8538C28.8889 15.8538 27.6124 15.3567 26.7178 14.4938C25.8441 13.6516 25.3236 12.4487 25.3 10.9856V10.8697ZM61.4191 3.62413L61.5865 3.67307V1.37548L61.508 1.342C61.339 1.2758 61.1625 1.22996 60.9822 1.20548C60.7599 1.16942 60.4983 1.14624 60.2315 1.14624C59.193 1.14624 58.0264 1.48624 57.4221 2.09669C56.8179 2.70459 56.483 3.57262 56.483 4.61322V5.09747H54.9659V7.73504H56.483V15.7482H59.5305V7.73504H61.5865V5.09747H59.5305V4.64928C59.5305 4.18307 59.6953 3.91262 59.9071 3.75807C60.1334 3.60644 60.4028 3.52973 60.6762 3.53913C61.0686 3.53913 61.2987 3.59065 61.4191 3.62413ZM53.8751 13.3811L54.032 13.3321V15.6374L53.9588 15.6735C53.8489 15.725 53.6711 15.774 53.4644 15.81C53.2551 15.8435 53.0119 15.8667 52.7581 15.8667C51.7851 15.8667 50.6917 15.5267 50.124 14.9137C49.5564 14.3032 49.2425 13.4326 49.2425 12.3894V7.73504H47.8169V5.11034H49.2425V2.26669H52.1016V5.11292H54.032V7.74017H52.1016V12.3533C52.1016 12.8221 52.2585 13.0926 52.4573 13.2497C52.6614 13.412 52.9308 13.4687 53.1793 13.4687C53.5481 13.4687 53.7626 13.4171 53.8751 13.3837V13.3811Z" fill="#0A1551"/>
<path d="M4.29777 16.1577C4.62213 16.4668 4.39193 17 3.93155 17H1.03324C0.763119 17.0035 0.502637 16.9013 0.308937 16.7159C0.115236 16.5304 0.00413349 16.2769 0 16.0109V13.2497C0 12.8067 0.557166 12.5878 0.884142 12.8994L4.29777 16.1577Z" fill="#0A1551"/>
<path d="M8.82044 16.3716C8.61719 16.1729 8.45587 15.9365 8.34577 15.6762C8.2357 15.4158 8.17902 15.1365 8.17902 14.8545C8.17902 14.5724 8.2357 14.2932 8.34577 14.0328C8.45587 13.7724 8.61719 13.5361 8.82044 13.3374L11.9123 10.3134C12.3249 9.91043 12.8824 9.68433 13.4635 9.68433C14.0446 9.68433 14.6021 9.91043 15.0147 10.3134C15.2179 10.5121 15.3793 10.7485 15.4893 11.0089C15.5994 11.2692 15.6561 11.5485 15.6561 11.8306C15.6561 12.1126 15.5994 12.3918 15.4893 12.6522C15.3793 12.9126 15.2179 13.149 15.0147 13.3477L11.9228 16.3716C11.5102 16.7746 10.9527 17.0007 10.3716 17.0007C9.79053 17.0007 9.23298 16.7746 8.82044 16.3716Z" fill="#FFB629"/>
<path d="M0.653933 8.77051C0.450675 8.57179 0.289358 8.33544 0.179272 8.07508C0.0691871 7.81469 0.0125122 7.53543 0.0125122 7.25339C0.0125122 6.97137 0.0691871 6.6921 0.179272 6.43172C0.289358 6.17134 0.450675 5.93498 0.653933 5.73626L5.85678 0.643999C6.26929 0.241017 6.82685 0.0148926 7.40795 0.0148926C7.98903 0.0148926 8.54659 0.241017 8.95912 0.643999C9.16237 0.842716 9.32369 1.07907 9.43376 1.33945C9.54386 1.59983 9.60054 1.87908 9.60054 2.16112C9.60054 2.44316 9.54386 2.72242 9.43376 2.98281C9.32369 3.24316 9.16237 3.47951 8.95912 3.67823L3.75367 8.77051C3.34124 9.17271 2.78426 9.39835 2.2038 9.39835C1.62334 9.39835 1.06636 9.17271 0.653933 8.77051Z" fill="#0099FF"/>
<path d="M4.90723 12.4023C4.70396 12.2036 4.54264 11.9673 4.43257 11.7069C4.32247 11.4465 4.26581 11.1672 4.26581 10.8852C4.26581 10.6032 4.32247 10.3239 4.43257 10.0635C4.54264 9.80316 4.70396 9.56678 4.90723 9.36809L11.9359 2.4908C12.3484 2.08782 12.906 1.86169 13.4871 1.86169C14.0681 1.86169 14.6257 2.08782 15.0382 2.4908C15.2415 2.68951 15.4028 2.92588 15.5129 3.18624C15.623 3.44662 15.6797 3.72589 15.6797 4.00793C15.6797 4.28995 15.623 4.56922 15.5129 4.8296C15.4028 5.08998 15.2415 5.32634 15.0382 5.52506L8.00957 12.4023C7.59703 12.8053 7.03948 13.0314 6.4584 13.0314C5.8773 13.0314 5.31974 12.8053 4.90723 12.4023Z" fill="#FF6100"/>
</g>
<defs>
<clipPath id="clip0_285_4903">
<rect width="96" height="17" fill="white"/>
</clipPath>
</defs>
</svg>
