<svg width="83" height="15" viewBox="0 0 83 15" fill="none" xmlns="http://www.w3.org/2000/svg">
<g clip-path="url(#clip0_285_4922)">
<path fill-rule="evenodd" clip-rule="evenodd" d="M6.41126 10.7103L2.73262 7.10965C2.10754 6.49779 1.09409 6.49779 0.468809 7.10965C-0.15627 7.72146 -0.15627 8.71341 0.468809 9.32542L5.27936 14.034C5.90443 14.6459 6.91812 14.6459 7.54316 14.034L12.071 9.602L9.80739 7.38618L6.41126 10.7103Z" fill="#16B8A2"/>
<path fill-rule="evenodd" clip-rule="evenodd" d="M20.277 3.78622L13.2033 10.71L6.12874 3.78544C5.50346 3.17341 4.49 3.17341 3.86493 3.78544C3.23985 4.39727 3.23985 5.38924 3.86493 6.00126L12.0713 14.0337C12.6964 14.6456 13.7099 14.6456 14.3352 14.0337L22.5408 6.00204C23.1659 5.39002 23.1659 4.39805 22.5408 3.78622C21.9155 3.17439 20.9021 3.17439 20.277 3.78622Z" fill="#FFB41F"/>
<path fill-rule="evenodd" clip-rule="evenodd" d="M25.9366 9.32604L21.1269 14.0338C20.5018 14.6457 19.4883 14.6457 18.8632 14.0338L7.2607 2.67722C6.63559 2.06539 6.63559 1.07342 7.2607 0.461583C7.88595 -0.150443 8.89942 -0.150443 9.52446 0.461583L19.995 10.7101L23.6728 7.11021C24.2981 6.49841 25.3115 6.49841 25.9366 7.11021C26.5617 7.72228 26.5617 8.71423 25.9366 9.32604Z" fill="#F56358"/>
<path fill-rule="evenodd" clip-rule="evenodd" d="M19.1449 0.462412C18.5198 -0.149417 17.5064 -0.149417 16.881 0.462412L9.80737 7.38617L12.071 9.60199L19.1449 2.67824C19.77 2.06621 19.77 1.07424 19.1449 0.462412Z" fill="#16B8A2"/>
<path fill-rule="evenodd" clip-rule="evenodd" d="M34.6923 1.54439H32.7239V12.8623H39.9363V11.1531H34.6923V1.54439ZM44.1966 4.94746C45.3934 4.94746 46.1965 5.42481 46.6375 6.00996L46.7319 5.10145H48.4327V12.8623H46.7319L46.6375 11.9538C46.1965 12.539 45.3934 13.0163 44.1966 13.0163C42.0391 13.0163 40.5746 11.3071 40.5746 8.98189C40.5746 6.6413 42.0391 4.94746 44.1966 4.94746ZM44.606 6.57974C43.3777 6.57974 42.4958 7.51906 42.4958 8.98189C42.4958 10.4448 43.3777 11.3841 44.606 11.3841C45.5509 11.3841 46.1178 10.8913 46.543 10.2292V7.73461C46.1178 7.07252 45.5509 6.57974 44.606 6.57974ZM53.1969 2.49909H51.3072V5.10145H49.8111V6.67215H51.3072V10.1214C51.3072 12 52.4567 13.0163 54.2677 13.0163C55.0551 13.0163 55.6378 12.8008 56.0315 12.5544L55.5275 11.1069C55.2913 11.2455 54.9449 11.3533 54.441 11.3533C53.7008 11.3533 53.1969 10.8913 53.1969 10.106V6.67215H55.5905V5.10145H53.1969V2.49909ZM59.7091 2.49909H57.8193V5.10145H56.3233V6.67215H57.8193V10.1214C57.8193 12 58.9689 13.0163 60.7799 13.0163C61.5673 13.0163 62.1499 12.8008 62.5436 12.5544L62.0397 11.1069C61.8035 11.2455 61.4571 11.3533 60.9531 11.3533C60.2129 11.3533 59.7091 10.8913 59.7091 10.106V6.67215H62.1027V5.10145H59.7091V2.49909ZM65.7015 5.10145H63.8118V12.8623H65.7015V5.10145ZM64.7567 1.48279C64.0953 1.48279 63.5913 1.96014 63.5913 2.62228C63.5913 3.28442 64.0953 3.76177 64.7567 3.76177C65.4338 3.76177 65.9377 3.28442 65.9377 2.62228C65.9377 1.96014 65.4338 1.48279 64.7567 1.48279ZM71.4108 4.94746C68.9696 4.94746 67.3478 6.6413 67.3478 8.98189C67.3478 11.3071 68.9857 13.0163 71.4262 13.0163C72.8593 13.0163 73.9456 12.385 74.6545 11.3071L73.3004 10.2754C72.9222 10.8913 72.3084 11.3995 71.4422 11.3995C70.0406 11.3995 69.2688 10.337 69.2688 8.98189C69.2688 7.61141 70.0092 6.56434 71.4262 6.56434C72.3084 6.56434 72.8907 7.05706 73.2528 7.67304L74.623 6.65676C73.9142 5.57881 72.8593 4.94746 71.4108 4.94746ZM79.277 4.94746C81.7182 4.94746 82.915 6.73371 82.915 8.90493V9.55163H77.3085C77.356 10.7835 78.1117 11.4611 79.4343 11.4611C80.3634 11.4611 81.0408 11.0607 81.4029 10.568L82.7102 11.615C81.9223 12.539 80.8835 13.0163 79.4189 13.0163C76.9624 13.0163 75.3874 11.3225 75.3874 8.99728C75.3874 6.65676 76.9939 4.94746 79.277 4.94746ZM79.2456 6.42573C78.1278 6.42573 77.3714 7.14948 77.3085 8.22739H81.0569C81.0093 7.16487 80.3795 6.42573 79.2456 6.42573Z" fill="#0E0E29"/>
</g>
<defs>
<clipPath id="clip0_285_4922">
<rect width="83" height="15" fill="white"/>
</clipPath>
</defs>
</svg>
