<svg width="168" height="56" viewBox="0 0 168 56" fill="none" xmlns="http://www.w3.org/2000/svg">
<rect x="2" y="2" width="52" height="52" rx="18" stroke="white" stroke-width="4"/>
<path d="M44.535 25.7401L31.2946 22.6241C29.8558 22.2855 28.5594 23.5709 28.8858 25.0125L31.9327 38.4714C32.2818 40.0135 34.1979 40.5599 35.3078 39.4337L45.5013 29.0908C46.5967 27.9794 46.054 26.0976 44.535 25.7401Z" fill="white"/>
<circle cx="5.21739" cy="5.21739" r="5.21739" transform="matrix(-1 0 0 1 36.6956 10)" fill="white"/>
<path d="M15.2765 41.262L10.0339 19.3648C8.99666 15.0327 12.2807 10.8696 16.7352 10.8696C19.9307 10.8696 22.7069 13.0665 23.4415 16.1764L28.617 38.0896C29.6339 42.3948 26.368 46.5218 21.9444 46.5218C18.7727 46.5218 16.015 44.3465 15.2765 41.262Z" fill="white"/>
<path d="M72.72 39.5V10.9H83.48C89.84 10.9 93.2 14.74 93.2 19.78C93.2 24.66 90 28.94 83 28.94H76.92V39.5H72.72ZM76.92 25.18H83.44C86.84 25.18 88.92 23.26 88.92 19.86C88.92 16.54 86.8 14.74 83.44 14.74H76.92V25.18ZM103.886 40.1C98.7659 40.1 94.5259 36.78 94.5259 29.98C94.5259 23.5 98.4459 19.7 104.046 19.7C109.246 19.7 112.406 23.02 112.406 29.14V30.86H98.6059C98.7659 34.06 100.726 36.7 103.966 36.7C106.686 36.7 108.286 35.02 108.926 33.14L112.166 34.7C110.846 37.9 108.006 40.1 103.886 40.1ZM98.7659 27.94H108.286C108.086 24.9 106.806 22.86 103.686 22.86C100.646 22.86 99.1259 25.02 98.7659 27.94ZM116.423 39.5V20.34H120.463V23.26C121.263 21.5 122.663 19.74 125.103 19.74C125.903 19.74 126.823 19.94 127.583 20.38L126.863 24.14C126.103 23.74 125.223 23.58 124.503 23.58C122.223 23.58 120.463 25.46 120.463 30.02V39.5H116.423ZM138.147 40.1C132.947 40.1 128.587 36.78 128.587 29.94C128.587 22.98 133.187 19.7 138.227 19.7C142.187 19.7 145.227 21.82 146.427 25.66L142.587 26.94C141.907 24.34 140.427 23.1 138.107 23.1C135.387 23.1 132.747 25.06 132.747 29.94C132.747 34.9 135.587 36.7 138.267 36.7C140.187 36.7 142.187 35.62 142.707 32.66L146.787 32.9C146.027 37.34 142.907 40.1 138.147 40.1ZM151.29 47.3C150.53 47.3 149.97 47.26 149.25 47.06L149.57 43.58C150.33 43.74 151.21 43.82 151.77 43.82C154.65 43.82 155.41 41.54 155.89 39.58L148.77 20.34H153.05L157.89 35.3L162.97 20.34H167.13L159.65 40.22C157.57 45.78 155.01 47.3 151.29 47.3Z" fill="white"/>
</svg>
