<svg width="92" height="34" viewBox="0 0 92 34" fill="none" xmlns="http://www.w3.org/2000/svg">
<path d="M21.475 2.14286H12.375C6.721 2.14286 2.13751 6.74793 2.13751 12.4286V21.5714C2.13751 27.2521 6.721 31.8571 12.375 31.8571H21.475C27.129 31.8571 31.7125 27.2521 31.7125 21.5714V12.4286C31.7125 6.74793 27.129 2.14286 21.475 2.14286Z" fill="white"/>
<path d="M21.475 2.14286H12.375C6.721 2.14286 2.13751 6.74793 2.13751 12.4286V21.5714C2.13751 27.2521 6.721 31.8571 12.375 31.8571H21.475C27.129 31.8571 31.7125 27.2521 31.7125 21.5714V12.4286C31.7125 6.74793 27.129 2.14286 21.475 2.14286Z" stroke="#2C1E17" stroke-width="4"/>
<path d="M26.3293 15.7087L18.7989 13.9281C17.9805 13.7346 17.2432 14.4691 17.4289 15.2929L19.1617 22.9837C19.3603 23.8649 20.4501 24.1771 21.0813 23.5336L26.8789 17.6234C27.5019 16.9883 27.1932 15.9129 26.3293 15.7087Z" fill="#2C1E17"/>
<path d="M18.9033 12.677C17.2644 12.677 15.9359 11.3422 15.9359 9.69565C15.9359 8.04909 17.2644 6.71429 18.9033 6.71429C20.5421 6.71429 21.8707 8.04909 21.8707 9.69565C21.8707 11.3422 20.5421 12.677 18.9033 12.677Z" fill="#2C1E17"/>
<path d="M9.68862 24.5782L6.70684 12.0656C6.11692 9.59006 7.98471 7.2112 10.5182 7.2112C12.3356 7.2112 13.9147 8.46657 14.3324 10.2437L17.276 22.7654C17.8543 25.2255 15.9969 27.5839 13.4809 27.5839C11.677 27.5839 10.1086 26.3408 9.68862 24.5782Z" fill="#2C1E17"/>
<path d="M42.0865 23.8571V10.6914H47.6193C47.7467 10.6914 47.9166 10.6975 48.1289 10.7097C48.3473 10.7158 48.5414 10.7341 48.7113 10.7646C49.4939 10.8865 50.1339 11.1455 50.6314 11.5417C51.1349 11.9379 51.505 12.4377 51.7416 13.0411C51.9782 13.6385 52.0965 14.3059 52.0965 15.0434C52.0965 15.781 51.9752 16.4514 51.7325 17.0549C51.4959 17.6522 51.1258 18.149 50.6223 18.5451C50.1248 18.9413 49.4878 19.2004 48.7113 19.3223C48.5414 19.3467 48.3473 19.365 48.1289 19.3771C47.9105 19.3893 47.7406 19.3954 47.6193 19.3954H44.5617V23.8571H42.0865ZM44.5617 17.0731H47.5101C47.6375 17.0731 47.777 17.067 47.9287 17.0549C48.0804 17.0427 48.2199 17.0183 48.3473 16.9817C48.681 16.8903 48.9388 16.7379 49.1208 16.5246C49.3028 16.3051 49.4272 16.0644 49.4939 15.8023C49.5667 15.5341 49.6031 15.2811 49.6031 15.0434C49.6031 14.8057 49.5667 14.5558 49.4939 14.2937C49.4272 14.0255 49.3028 13.7847 49.1208 13.5714C48.9388 13.352 48.681 13.1966 48.3473 13.1051C48.2199 13.0686 48.0804 13.0442 47.9287 13.032C47.777 13.0198 47.6375 13.0137 47.5101 13.0137H44.5617V17.0731ZM58.3141 24.1314C57.307 24.1314 56.4182 23.915 55.6478 23.4823C54.8834 23.0434 54.2828 22.443 53.846 21.6811C53.4152 20.9131 53.1999 20.0354 53.1999 19.048C53.1999 17.9691 53.4122 17.0305 53.8369 16.232C54.2615 15.4335 54.847 14.8149 55.5932 14.376C56.3394 13.931 57.1978 13.7086 58.1685 13.7086C59.1996 13.7086 60.0766 13.9524 60.7984 14.44C61.5201 14.9276 62.0542 15.6133 62.4 16.4971C62.7458 17.381 62.8669 18.4202 62.764 19.6149H60.3161V18.7006C60.3161 17.6949 60.1551 16.9726 59.8338 16.5337C59.5181 16.0887 58.9994 15.8663 58.2777 15.8663C57.4344 15.8663 56.8126 16.1253 56.4122 16.6434C56.0178 17.1554 55.8207 17.9143 55.8207 18.92C55.8207 19.8404 56.0178 20.5535 56.4122 21.0594C56.8126 21.5593 57.398 21.8091 58.1685 21.8091C58.6536 21.8091 59.0694 21.7025 59.4152 21.4891C59.761 21.2758 60.0249 20.968 60.2069 20.5657L62.6821 21.2789C62.3118 22.181 61.7266 22.8819 60.9258 23.3817C60.1312 23.8815 59.2605 24.1314 58.3141 24.1314ZM55.0563 19.6149V17.768H61.5719V19.6149H55.0563ZM64.8189 23.8571V13.9829H67.0029V16.3966L66.7663 16.0857C66.8937 15.7444 67.0631 15.4335 67.2759 15.1531C67.488 14.8727 67.7491 14.6411 68.0585 14.4583C68.2951 14.312 68.5527 14.1993 68.832 14.12C69.1106 14.0347 69.399 13.9829 69.6965 13.9646C69.9933 13.9402 70.2908 13.9463 70.5883 13.9829V16.3051C70.3153 16.2198 69.9968 16.1924 69.6328 16.2229C69.2744 16.2473 68.9503 16.3295 68.6591 16.4697C68.3679 16.6038 68.1222 16.7836 67.922 17.0091C67.7218 17.2286 67.5699 17.4907 67.467 17.7954C67.3634 18.0941 67.3123 18.4324 67.3123 18.8103V23.8571H64.8189ZM76.4731 24.1314C75.4539 24.1314 74.5803 23.9029 73.8523 23.4457C73.1243 22.9886 72.5658 22.3669 72.1779 21.5806C71.7895 20.7943 71.5955 19.9074 71.5955 18.92C71.5955 17.9204 71.7957 17.0274 72.1961 16.2411C72.6022 15.4549 73.1727 14.8362 73.9069 14.3851C74.6406 13.9341 75.5085 13.7086 76.5095 13.7086C77.6681 13.7086 78.6389 14.0042 79.4215 14.5954C80.2098 15.1806 80.7137 15.9821 80.9321 17L78.4569 17.6583C78.3113 17.1463 78.0565 16.747 77.6925 16.4606C77.3342 16.1741 76.9281 16.0309 76.4731 16.0309C75.951 16.0309 75.5233 16.1589 75.19 16.4149C74.8562 16.6647 74.6105 17.0091 74.4529 17.448C74.2948 17.8807 74.2163 18.3714 74.2163 18.92C74.2163 19.7794 74.404 20.4773 74.7805 21.0137C75.1627 21.544 75.7269 21.8091 76.4731 21.8091C77.0311 21.8091 77.4559 21.6811 77.7471 21.4251C78.0383 21.1691 78.2567 20.8034 78.4023 20.328L80.9321 20.8583C80.6529 21.9067 80.1251 22.7143 79.3487 23.2811C78.5718 23.848 77.6135 24.1314 76.4731 24.1314ZM83.6524 28.2457L85.5452 23.016L85.5816 24.552L81.3046 13.9829H83.8708L86.7464 21.4617H86.164L89.0214 13.9829H91.4966L85.9456 28.2457H83.6524Z" fill="black"/>
</svg>
