<svg width="130" height="17" viewBox="0 0 130 17" fill="none" xmlns="http://www.w3.org/2000/svg">
<g clip-path="url(#clip0_285_4893)">
<path d="M89.754 6.66927C89.754 4.57697 88.4213 3.07312 85.9559 3.07312H77.8268V13.927H80.4921V10.2H83.6238L86.6889 13.927H89.6874V13.6654L86.6889 10.1347C88.6212 9.74235 89.754 8.36927 89.754 6.66927ZM85.6228 7.97697H80.4921V5.2962H85.6228C86.5556 5.2962 87.1553 5.81927 87.1553 6.66927C87.222 7.51927 86.6223 7.97697 85.6228 7.97697Z" fill="black"/>
<path d="M130 3.00769H127.535V7.12692H120.805V3.00769H118.139V13.8615H120.805V9.61154H127.535V13.8615H130V3.00769Z" fill="black"/>
<path d="M70.697 3.00769L67.7652 12.0962H67.632L64.6335 3.00769H59.9026V13.8615H62.4346V4.96923H62.5679L65.4997 13.8615H69.5643L72.5628 4.96923H72.696V13.8615H75.2947V3.00769H70.697Z" fill="black"/>
<path d="M41.7119 7.45379C40.7791 7.3884 39.0466 7.19225 38.0471 7.12686C37.1143 7.06148 36.5812 6.73456 36.5812 6.14609C36.5812 5.55763 37.1809 5.09994 39.4464 5.09994C41.4454 5.09994 43.3111 5.55763 44.9769 6.27686V3.85763C43.3777 3.07302 41.5786 2.74609 39.3131 2.74609C36.1814 2.74609 33.9825 4.05379 33.9825 6.21148C33.9825 8.04225 35.2486 9.0884 37.8472 9.34994C38.7801 9.48071 40.3793 9.61148 41.4454 9.67686C42.6448 9.74225 42.9779 10.1346 42.9779 10.6576C42.9779 11.3769 42.1117 11.8346 40.0461 11.8346C37.9139 11.8346 35.715 11.1153 34.1158 10.1999V12.6846C35.3818 13.5346 37.5141 14.1884 39.9795 14.1884C43.3777 14.1884 45.5766 12.8807 45.5766 10.5922C45.5766 8.82686 44.4438 7.71532 41.7119 7.45379Z" fill="black"/>
<path d="M47.3757 3.00769V13.8615H57.6371V11.6385H49.9078V9.41538H57.5039V7.19231H49.9078V5.23077H57.6371V3.00769H47.3757Z" fill="black"/>
<path d="M112.609 7.45379C111.676 7.3884 109.944 7.19225 108.944 7.12686C108.011 7.06148 107.478 6.73456 107.478 6.14609C107.478 5.55763 108.078 5.09994 110.343 5.09994C112.342 5.09994 114.208 5.49225 115.874 6.27686V3.85763C114.275 3.07302 112.476 2.74609 110.21 2.74609C107.078 2.74609 104.88 4.05379 104.88 6.21148C104.88 8.04225 106.146 9.0884 108.744 9.34994C109.677 9.48071 111.276 9.61148 112.342 9.67686C113.542 9.74225 113.875 10.1346 113.875 10.6576C113.875 11.3769 113.009 11.8346 110.943 11.8346C108.811 11.8346 106.612 11.1153 105.013 10.1999V12.6846C106.279 13.5346 108.411 14.1884 110.876 14.1884C114.275 14.1884 116.474 12.8807 116.474 10.5922C116.474 8.82686 115.274 7.71532 112.609 7.45379Z" fill="black"/>
<path d="M100.415 3.00769V8.56538C100.415 10.6577 99.0826 11.8346 97.1502 11.8346C95.1512 11.8346 93.8852 10.7231 93.8852 8.56538V3.00769H91.2199V8.30384C91.2199 12.2269 93.752 14.1885 97.1502 14.1885C100.482 14.1885 103.014 12.2923 103.014 8.43461V3.00769H100.415Z" fill="black"/>
<path d="M24.9206 8.36923C24.9206 8.89231 24.654 8.95769 23.9877 8.95769C23.2547 8.95769 23.1215 8.82692 23.0548 8.30385C22.9216 6.93077 21.9887 5.75385 20.3895 5.68846C19.9231 5.62308 19.7899 5.49231 19.7899 4.83846C19.7899 4.25 19.8565 3.98846 20.3229 3.98846C22.9882 4.05385 24.9206 6.21154 24.9206 8.36923ZM28.8519 8.36923C28.8519 4.31538 26.0533 0 19.5233 0H6.66325C6.39672 0 6.19682 0.130769 6.19682 0.392308C6.19682 0.523077 6.26345 0.653846 6.39672 0.719231C6.86315 1.11154 7.52947 1.50385 8.46233 1.96154C9.32855 2.41923 10.0615 2.68077 10.7278 2.94231C10.9944 3.07308 11.1276 3.20385 11.1276 3.33462C11.1276 3.53077 10.9944 3.72692 10.6612 3.72692H0.466427C0.133265 3.66154 0 3.85769 0 4.05385C0 4.25 0.0666325 4.38077 0.199897 4.51154C0.999488 5.36154 2.33214 6.40769 4.26448 7.58462C5.93029 8.63077 8.06253 9.74231 9.72834 10.5269C9.99487 10.6577 10.1281 10.7885 10.1281 10.9846C10.1281 11.1808 9.99487 11.3115 9.66171 11.3115H4.9308C4.66427 11.3115 4.53101 11.4423 4.53101 11.6385C4.53101 11.7692 4.59764 11.9 4.73091 12.0308C5.79703 13.0115 7.52947 13.9923 9.79498 14.9731C12.8601 16.2154 15.9252 17 19.3901 17C25.9867 17 28.8519 12.1615 28.8519 8.36923ZM20.2563 14.1885C17.0579 14.1885 14.326 11.6385 14.326 8.36923C14.326 5.23077 16.9913 2.68077 20.2563 2.68077C23.5879 2.68077 26.1866 5.23077 26.1866 8.36923C26.1866 11.5731 23.5879 14.1885 20.2563 14.1885Z" fill="#FF642D"/>
</g>
<defs>
<clipPath id="clip0_285_4893">
<rect width="130" height="17" fill="white"/>
</clipPath>
</defs>
</svg>
