<svg width="96" height="17" viewBox="0 0 96 17" fill="none" xmlns="http://www.w3.org/2000/svg">
<g clip-path="url(#clip0_285_4911)">
<path fill-rule="evenodd" clip-rule="evenodd" d="M33.2089 10.8352C33.6077 9.93586 34.4436 9.3235 35.5457 9.3235C36.6479 9.3235 37.4648 9.84013 37.8068 10.8352H33.2089ZM40.4287 11.9835C40.4287 9.22768 38.4336 7.02703 35.5268 7.02703C32.7908 7.02703 30.5869 9.24677 30.5869 12.0027C30.5869 14.7584 32.639 16.9782 35.6029 16.9782C37.6556 16.9782 39.1319 15.981 39.9627 14.5512L37.8981 13.3112C37.4601 14.1577 36.6193 14.6819 35.6218 14.6819C34.2538 14.6819 33.3989 13.9928 33.0949 12.9403H40.4287V11.9835ZM93.4204 11.9835C93.4204 10.5674 92.3945 9.41913 90.9888 9.41913C89.5449 9.41913 88.4427 10.51 88.4427 11.9835C88.4427 13.457 89.5449 14.567 90.9888 14.567C92.3945 14.567 93.4204 13.3997 93.4204 11.9835ZM85.8968 12.0027C85.8968 8.61562 88.3668 7.02703 90.5133 7.02703C91.7485 7.02703 92.7175 7.48633 93.3446 8.15606V2.81695H95.9476V16.7868H93.3446V15.7153C92.7175 16.4617 91.7106 16.9782 90.4754 16.9782C88.4617 16.9782 85.8968 15.3707 85.8968 12.0027ZM83.9846 5.76212C84.8446 5.76212 85.5417 5.05999 85.5417 4.1938C85.5417 3.32761 84.8446 2.62549 83.9846 2.62549C83.1248 2.62549 82.4279 3.32761 82.4279 4.1938C82.4279 5.05999 83.1248 5.76212 83.9846 5.76212ZM82.6833 7.2185H85.2861V16.7868H82.6833V9.76377L81.7386 9.76359L82.6833 7.2185ZM75.7493 7.2185H78.3332V8.78773C78.8082 7.79263 79.6632 7.2185 80.9551 7.2185H82.0002L81.0564 9.76359H80.3471C78.9602 9.76359 78.3522 10.4909 78.3522 12.2706V16.7868H75.7493V7.2185ZM61.106 9.80195C61.106 5.82137 64.089 2.62549 68.1928 2.62549C70.2456 2.62549 71.9718 3.37001 73.2216 4.55644C73.7303 5.03919 74.1599 5.59527 74.5006 6.20416L72.1828 7.62025C71.3278 6.0318 70.0168 5.20892 68.2118 5.20892C65.6849 5.20892 63.7279 7.29501 63.7279 9.80195C63.7279 12.3663 65.647 14.3947 68.3067 14.3947C70.3208 14.3947 71.7456 13.2466 72.2397 11.4668H67.8888V8.92165H75.0895V9.99323C75.0895 13.7442 72.4298 16.9782 68.3067 16.9782C63.975 16.9782 61.106 13.6677 61.106 9.80195ZM57.9683 11.9835C57.9683 10.5674 56.9425 9.41913 55.5366 9.41913C54.0926 9.41913 52.9905 10.51 52.9905 11.9835C52.9905 13.457 54.0926 14.567 55.5366 14.567C56.9425 14.567 57.9683 13.3997 57.9683 11.9835ZM50.4446 12.0027C50.4446 8.61562 52.9144 7.02703 55.0614 7.02703C56.2964 7.02703 57.2654 7.48633 57.8925 8.15606V2.81695H60.4954V16.7868H57.8925V15.7153C57.2654 16.4617 56.2585 16.9782 55.0235 16.9782C53.0096 16.9782 50.4446 15.3707 50.4446 12.0027ZM41.0371 7.2185H43.6213V8.29012C44.2291 7.50543 45.1603 7.02703 46.2432 7.02703C48.485 7.02703 49.834 8.48144 49.834 10.95V16.7868H47.1931V11.2945C47.1931 10.0124 46.6041 9.26604 45.4453 9.26604C44.4571 9.26604 43.6402 9.95495 43.6402 11.5624V16.7868H41.0371V7.2185ZM19.7844 14.4713L22.1976 12.5575C22.8814 13.7442 23.9645 14.433 25.1992 14.433C26.5485 14.433 27.2704 13.5529 27.2704 12.5958C27.2704 11.4477 25.8832 11.0842 24.4014 10.6247C22.5396 10.0507 20.4685 9.3235 20.4685 6.64424C20.4685 4.40528 22.4066 2.62549 25.0854 2.62549C27.3464 2.62549 28.6384 3.48668 29.7594 4.65415L27.5743 6.31899C27.0045 5.45793 26.1875 4.9985 25.1043 4.9985C23.8694 4.9985 23.2046 5.66836 23.2046 6.54864C23.2046 7.62025 24.5344 7.98409 26.0163 8.48144C27.8975 9.09377 30.0253 9.93586 30.0253 12.6151C30.0253 14.8349 28.2773 16.9782 25.2183 16.9782C22.7106 16.9782 21.0386 15.9068 19.7844 14.4713Z" fill="#212F38"/>
<path fill-rule="evenodd" clip-rule="evenodd" d="M5.57544 16.7868H11.1231V11.1991H5.57544V16.7868Z" fill="#9DD6E3"/>
<path fill-rule="evenodd" clip-rule="evenodd" d="M0.027832 11.1994H5.57545V5.61157H0.027832V11.1994Z" fill="#9DD6E3"/>
<path fill-rule="evenodd" clip-rule="evenodd" d="M0.0279541 16.7868H5.57556V11.1991H0.0279541V16.7868Z" fill="#3F72AB"/>
<path fill-rule="evenodd" clip-rule="evenodd" d="M11.123 11.1994H16.6707V5.61157H11.123V11.1994Z" fill="#00A9D1"/>
<path fill-rule="evenodd" clip-rule="evenodd" d="M5.57544 5.61165H11.1231V0.0239258H5.57544V5.61165Z" fill="#00A9D1"/>
<path fill-rule="evenodd" clip-rule="evenodd" d="M5.57544 11.1993H11.1231V5.61157H5.57544V11.1993Z" fill="#2191C4"/>
<path fill-rule="evenodd" clip-rule="evenodd" d="M11.123 5.61165H16.6707V0.0239258H11.123V5.61165Z" fill="#3F72AB"/>
</g>
<defs>
<clipPath id="clip0_285_4911">
<rect width="96" height="17" fill="white"/>
</clipPath>
</defs>
</svg>
