<svg width="88" height="23" viewBox="0 0 88 23" fill="none" xmlns="http://www.w3.org/2000/svg">
<g clip-path="url(#clip0_285_4885)">
<path d="M83.8646 5.96567C83.6961 7.0174 84.1966 7.96914 84.9665 8.37692C84.4282 11.2804 82.2657 15.9241 81.0486 15.9241C79.8315 15.9241 80.7678 11.6158 82.0944 6.49189C82.3751 5.39478 79.5198 5.64086 78.9569 6.61387C77.9911 11.8165 75.8595 15.8 74.535 15.8C74.0114 15.8 73.9313 15.1497 73.9313 14.5802C73.9313 12.264 75.1786 7.63015 75.3393 6.6543C75.5015 5.69618 74.1833 5.9061 73.32 6.33233C73.0512 6.47771 71.0395 7.49398 70.0611 7.96346C69.4645 5.73377 66.9868 6.02454 66.4891 7.71312C66.1277 8.9308 67.0289 9.71517 67.9435 9.87899C67.8957 12.5796 66.32 16.005 64.5175 16.005C62.2651 16.005 63.311 8.72939 66.2077 6.94081C66.0462 6.0061 64.8397 5.88412 63.7131 6.37346C61.5548 7.30463 60.2135 10.8137 60.4051 13.7285C59.5628 15.0518 58.7206 15.8844 58.2019 15.8844C57.9604 15.8844 57.6789 15.6412 57.6789 15.0334C57.6789 13.3264 58.5212 8.57053 59.0062 5.40045C59.3284 3.12395 58.9262 0.360229 55.8688 0.360229C53.7259 0.360229 52.5305 2.42894 51.6623 5.64441H50.3575C49.796 5.64441 49.4724 7.10818 50.0767 7.1486C50.2718 7.16633 50.74 7.16846 51.2924 7.16563C51.1338 7.87978 50.985 8.63578 50.8411 9.42511C50.7657 9.82982 50.6932 10.2475 50.6235 10.6782C49.5285 12.9923 46.968 16.1723 44.6862 16.1723C43.6284 16.1723 43.2599 14.8795 43.3245 13.2796C49.5278 13.5583 51.4335 5.68625 45.8927 5.72597C42.5938 5.74795 40.5527 9.26483 40.3077 12.5221C39.3195 14.1809 37.6749 16.2099 36.1574 16.2099C32.9392 16.2099 35.1116 7.30817 37.2805 7.30817C38.2056 7.30817 38.0048 8.81237 37.4412 9.82864C37.6426 11.1293 39.6943 11.2513 40.1786 9.05633C40.5401 7.38973 39.5349 5.76355 37.4026 5.76355C33.8573 5.76355 31.6295 9.75772 31.6091 13.1739C30.929 14.6724 30.0446 15.4781 29.3975 15.4781C28.8746 15.4781 28.7938 14.8689 29.4375 11.2938C29.5982 10.3995 29.7589 9.38326 29.9204 8.32657C30.159 6.79755 29.5301 5.90681 28.2302 5.88837C28.2302 5.88837 28.08 5.88837 28.0274 5.89405C27.1198 5.94511 25.9069 6.338 24.6239 7.24151C23.8518 5.41463 21.6563 5.77703 21.1909 7.38973C20.8294 8.66627 21.7307 9.46695 22.6452 9.63503C22.5933 12.42 21.0189 15.966 19.2193 15.966C16.9669 15.966 18.0127 8.44855 20.9087 6.61742C20.748 5.64157 19.5414 5.51959 18.4149 6.00752C14.5131 7.67411 13.3058 17.9574 18.7771 17.9574C23.1155 17.9574 24.8057 11.7399 24.8892 8.9925C25.5911 8.46486 26.3709 8.04999 26.8068 8.03935H26.8229C27.0237 8.03935 27.1037 8.12091 27.0637 8.36416C26.8215 10.2336 26.1807 13.4037 26.1807 15.1107C26.1807 16.8588 26.6636 17.956 28.1523 17.956C29.5505 17.956 30.9297 16.7035 31.8723 15.1192C32.3637 16.7603 33.5702 17.956 35.6352 17.956C37.6812 17.956 39.3124 16.3 40.4334 14.6937C40.8229 16.5518 41.9775 17.956 44.0432 17.956C46.9034 17.956 49.0014 15.6475 50.2115 13.4966C50.1371 14.0639 50.0655 14.6462 49.9967 15.2327C49.5945 18.5254 49.273 19.8665 48.7494 21.048C48.5346 21.5355 48.293 22.0104 48.0258 22.4707C47.8243 22.8366 48.0658 22.999 48.388 22.999C49.1116 22.999 50.2782 22.5522 51.0025 21.3324C51.6862 20.1977 52.3705 19.0566 53.0942 12.5122C53.2542 11.1073 53.4711 9.08044 53.7834 7.14719H54.5829C55.3072 7.14719 55.9909 5.76497 55.1444 5.68413C54.9956 5.66994 54.5864 5.66143 54.048 5.65505C54.505 3.35443 55.1276 1.49706 55.9895 1.49706C56.7939 1.49706 56.9546 2.75729 56.5931 4.78984C55.9895 7.95992 55.4266 11.9434 55.1851 14.2221C54.9044 16.9042 55.788 17.9609 57.2768 17.9609C58.4496 17.9609 59.7481 16.8759 60.7413 15.4788C61.246 16.9319 62.3115 17.9609 64.0753 17.9609C68.0565 17.9609 69.8077 12.8838 70.1334 9.99104C70.7135 9.79632 71.2811 9.56514 71.8327 9.29887C71.4501 11.3045 71.1553 13.5136 71.1553 14.7908C71.1553 16.6603 72.0804 17.9205 73.4884 17.9205C75.5625 17.9205 76.9846 15.9461 77.8402 14.3036C77.8346 16.4674 78.6558 17.9616 80.6078 17.9616C84.8318 17.9616 87.8085 9.30454 87.8085 6.54012C87.8071 3.52748 84.2275 3.64875 83.8646 5.96567ZM45.9699 7.26633C47.6608 7.26633 46.4142 11.6818 43.4571 11.9683C43.8319 9.66269 44.8848 7.26633 45.9699 7.26633Z" fill="black"/>
<path fill-rule="evenodd" clip-rule="evenodd" d="M28.9932 4.50262C31.367 4.50262 31.8899 0.356689 29.3961 0.356689C27.0623 0.356689 26.5801 4.50262 28.9932 4.50262Z" fill="black"/>
<path fill-rule="evenodd" clip-rule="evenodd" d="M10.8092 0.641094C11.5735 1.08788 12.6994 2.67293 12.2572 6.08768C11.5328 11.5343 8.6368 16.005 7.67099 16.005C7.10947 16.005 7.14808 15.154 7.87243 11.9811C8.83754 7.83513 10.1655 1.94175 4.9357 1.94175C-0.615591 1.94175 -1.29994 7.95711 2.28043 8.68899C1.75752 5.88414 3.40697 3.24241 4.97571 3.24241C6.66517 3.24241 5.94152 6.53447 5.25647 10.0712C4.4521 14.176 3.527 18.8503 6.74519 18.8503C11.2106 18.8503 14.5496 10.518 15.1532 6.08484C15.9197 0.477981 12.54 -1.0255 10.8092 0.641094Z" fill="black"/>
</g>
<defs>
<clipPath id="clip0_285_4885">
<rect width="88" height="23" fill="white"/>
</clipPath>
</defs>
</svg>
